# xmcd
#
# Track frame offsets: 
#        150
#        15891
#        33698
#        50290
#        67917
#        81948
#        95164
#        109978
#        127141
#        143530
#        155800
#        171301
#        189368
#        203071
#        218355
#
# Disc length: 3112 seconds
#
# Revision: 1
# Processed by: cddbd v1.5.2PL0 Copyright (c) Steve Scherf et al.
# Submitted via: ExactAudioCopyFreeDBPlugin 1.0
#
DISCID=cd0c260f
DTITLE=Various Artist - Blues On The Loose Vol 2
DYEAR=1900
DGENRE=Blues
TTITLE0=Jellyroll Antennae - Keep It In The Family
TTITLE1=Boogie Twins - Make Time For Me
TTITLE2=George Stancell - Gonna Move On
TTITLE3=Joe Maher and Wendy Smith - Cool Cat Blues
TTITLE4=Groove Doctors - Ellaree
TTITLE5=Eric Allison - Tune Up
TTITLE6=Tom Principato - Lipstick, Powder and Paint
TTITLE7=Gerry Goffin - Never Too Late To Rock And Roll
TTITLE8=Liz Abella - A Place In My Heart
TTITLE9=Adeja Benz - Friends
TTITLE10=Firstlove - Self Control
TTITLE11=Billy Griffin - Changin' It Up
TTITLE12=Swing Party - Kiss Me Good Night
TTITLE13=J Street Jumpers - Is Or Is You Ain't My Baby
TTITLE14=Johnny Ferreira - Mexico
EXTD=
EXTT0=
EXTT1=
EXTT2=
EXTT3=
EXTT4=
EXTT5=
EXTT6=
EXTT7=
EXTT8=
EXTT9=
EXTT10=
EXTT11=
EXTT12=
EXTT13=
EXTT14=
PLAYORDER=
